<svg xmlns="http://www.w3.org/2000/svg" fill="none" viewBox="0 0 24 24" id="Receipt-Long--Streamline-Outlined-Material" height="24" width="24">
  <desc>
    Receipt Long Streamline Icon: https://streamlinehq.com
  </desc>
  <path fill="#000000" d="M5.55005 22c-0.72917 0 -1.34892 -0.25525 -1.85925 -0.76575 -0.5105 -0.51035 -0.76575 -1.1301 -0.76575 -1.85925V16.25h3.175V2l1.495 1.5 1.495 -1.5 1.495 1.5 1.495 -1.5 1.495 1.5 1.5 -1.5 1.5 1.5 1.5 -1.5 1.5 1.5 1.5 -1.5v17.375c0 0.72915 -0.25515 1.3489 -0.7655 1.85925C19.79905 21.74475 19.1792 22 18.45005 22h-12.9Zm12.9 -1.5c0.33335 0 0.60415 -0.10415 0.8125 -0.3125 0.20835 -0.20835 0.3125 -0.47915 0.3125 -0.8125V4.5h-11.975v11.75h9.725v3.125c0 0.33335 0.10415 0.60415 0.3125 0.8125 0.20835 0.20835 0.47915 0.3125 0.8125 0.3125Zm-9.525 -12.05v-1.5h6v1.5h-6Zm0 3.35v-1.5h6v1.5h-6Zm8.325 -3.35c-0.2 0 -0.375 -0.075 -0.525 -0.225 -0.15 -0.15 -0.225 -0.325 -0.225 -0.525s0.075 -0.375 0.225 -0.525c0.15 -0.15 0.325 -0.225 0.525 -0.225s0.375 0.075 0.525 0.225c0.15 0.15 0.225 0.325 0.225 0.525s-0.075 0.375 -0.225 0.525c-0.15 0.15 -0.325 0.225 -0.525 0.225Zm0 3.225c-0.2 0 -0.375 -0.075 -0.525 -0.225 -0.15 -0.15 -0.225 -0.325 -0.225 -0.525s0.075 -0.375 0.225 -0.525c0.15 -0.15 0.325 -0.225 0.525 -0.225s0.375 0.075 0.525 0.225c0.15 0.15 0.225 0.325 0.225 0.525s-0.075 0.375 -0.225 0.525c-0.15 0.15 -0.325 0.225 -0.525 0.225ZM5.52505 20.5h10.3v-2.75h-11.4v1.625c0 0.33335 0.105415 0.60415 0.31625 0.8125 0.21083 0.20835 0.4721 0.3125 0.78375 0.3125Z" stroke-width="0.5"></path>
</svg>